<?xml version="1.0" standalone="no"?>
<!DOCTYPE svg PUBLIC "-//W3C//DTD SVG 20010904//EN"
 "http://www.w3.org/TR/2001/REC-SVG-20010904/DTD/svg10.dtd">
<svg version="1.0" xmlns="http://www.w3.org/2000/svg"
 width="1536.000000pt" height="1024.000000pt" viewBox="0 0 1536.000000 1024.000000"
 preserveAspectRatio="xMidYMid meet">

<g transform="translate(0.000000,1024.000000) scale(0.100000,-0.100000)"
fill="#000000" stroke="none">
<path d="M0 10218 c0 -20 1 -21 20 -3 11 10 20 20 20 22 0 1 -9 3 -20 3 -14 0
-20 -7 -20 -22z"/>
<path d="M47 10192 l-47 -48 0 -554 0 -555 418 420 c229 231 498 502 597 603
l179 182 -550 0 -550 0 -47 -48z"/>
<path d="M626 9609 l-626 -630 0 -547 1 -547 696 700 c383 385 910 915 1172
1178 l475 477 -546 0 -546 0 -626 -631z"/>
<path d="M1202 9035 l-1202 -1204 0 -536 c0 -294 3 -534 8 -533 4 1 788 784
1742 1740 l1735 1738 -541 0 -541 0 -1201 -1205z"/>
<path d="M1950 8648 c-872 -875 -1585 -1595 -1585 -1599 0 -5 119 -128 265
-275 l265 -266 1033 1038 c568 572 1402 1411 1854 1867 l820 827 -533 0 -534
-1 -1585 -1591z"/>
<path d="M3875 9448 c-434 -436 -1277 -1281 -1872 -1878 l-1083 -1085 270
-275 269 -275 1576 1575 c1465 1464 1744 1745 2455 2462 l265 268 -546 0 -545
0 -789 -792z"/>
<path d="M5579 10008 c-123 -128 -1094 -1103 -2157 -2167 l-1934 -1934 271
-271 271 -271 1452 1455 c799 800 1894 1897 2433 2438 l980 982 -546 0 -545 0
-225 -232z"/>
<path d="M4509 7795 c-1344 -1345 -2445 -2449 -2447 -2453 -1 -4 119 -128 266
-275 l268 -268 1080 1088 c593 598 1679 1687 2414 2419 l1334 1332 1860 -1865
1860 -1864 270 270 271 271 -660 662 c-363 365 -1214 1218 -1890 1896 l-1230
1232 -476 0 -477 0 -2443 -2445z"/>
<path d="M7974 10233 c30 -29 3355 -3372 3523 -3543 l213 -215 270 270 270
270 -753 755 c-414 415 -1135 1141 -1602 1613 l-848 857 -540 0 c-297 0 -537
-3 -533 -7z"/>
<path d="M9345 9998 c649 -656 1357 -1370 2105 -2123 454 -456 825 -831 825
-832 1 -1 124 121 275 272 l273 273 -929 934 c-511 513 -1105 1110 -1319 1326
l-389 392 -540 0 -541 0 240 -242z"/>
<path d="M10907 9568 c369 -370 957 -961 1307 -1313 l635 -640 271 271 271
271 -1037 1041 -1036 1042 -541 0 -542 0 672 -672z"/>
<path d="M11380 10233 c0 -5 458 -466 1018 -1026 l1017 -1017 270 269 270 269
-755 756 -755 756 -532 0 c-293 0 -533 -3 -533 -7z"/>
<path d="M12511 10236 c253 -259 1463 -1476 1468 -1476 5 0 504 495 540 535 2
3 -207 216 -464 475 l-469 470 -540 0 c-297 0 -537 -2 -535 -4z"/>
<path d="M14090 9785 c250 -250 458 -454 462 -453 4 2 188 183 408 403 l400
399 0 53 0 53 -862 0 -863 0 455 -455z"/>
<path d="M10845 5558 l-4507 -4513 277 -272 c152 -150 277 -273 278 -273 1 0
311 309 687 686 377 378 2281 2284 4233 4236 l3547 3549 0 549 c0 303 -2 550
-4 550 -2 0 -2032 -2031 -4511 -4512z"/>
<path d="M5016 7178 l-2396 -2403 268 -268 267 -267 485 487 c267 268 1226
1230 2132 2138 l1648 1651 1582 -1583 1583 -1583 263 263 c144 144 262 266
262 271 0 10 -3681 3696 -3691 3696 -4 0 -1085 -1081 -2403 -2402z"/>
<path d="M11168 4726 c-2302 -2305 -4200 -4207 -4216 -4227 l-31 -35 233 -233
232 -232 76 3 76 3 1099 1095 c604 602 2364 2362 3911 3911 l2812 2817 -2 544
-3 545 -4187 -4191z"/>
<path d="M5297 6337 l-2118 -2121 269 -269 269 -269 1844 1847 c1014 1015
1846 1851 1848 1857 2 6 590 -576 1307 -1293 l1304 -1304 265 268 c146 148
265 272 265 275 0 8 -3123 3132 -3130 3131 -3 0 -958 -955 -2123 -2122z"/>
<path d="M11472 3883 l-3884 -3883 539 0 538 0 3348 3348 3347 3347 -2 535 -3
535 -3883 -3882z"/>
<path d="M5580 5489 l-1833 -1840 266 -267 267 -267 1570 1570 1570 1569 1013
-1019 1013 -1019 272 273 271 274 -1281 1283 c-705 706 -1285 1284 -1288 1284
-4 0 -832 -828 -1840 -1841z"/>
<path d="M162 6858 l-162 -163 0 -215 0 -215 167 -170 c91 -93 1499 -1503
3127 -3132 l2961 -2963 532 0 c293 0 533 3 533 7 0 4 -768 776 -1707 1715
-940 939 -2513 2516 -3498 3503 l-1790 1796 -163 -163z"/>
<path d="M12036 3321 l-3318 -3321 539 2 539 3 2782 2786 2782 2787 -2 532 -3
531 -3319 -3320z"/>
<path d="M0 5663 l0 -538 1522 -1530 c837 -841 1985 -1995 2552 -2563 l1031
-1032 542 2 541 3 -3094 3098 -3094 3098 0 -538z"/>
<path d="M5861 4641 l-1553 -1554 268 -268 269 -269 1287 1287 1288 1288 735
-735 736 -735 266 268 265 269 -1003 1001 -1004 1002 -1554 -1554z"/>
<path d="M12600 2763 l-2752 -2758 543 -3 544 -2 2212 2217 2212 2218 0 543
c1 298 -1 542 -3 542 -2 0 -1242 -1241 -2756 -2757z"/>
<path d="M6143 3798 l-1273 -1273 271 -271 270 -271 1004 1009 1004 1008 454
-454 454 -455 269 270 269 269 -720 720 c-396 396 -722 720 -725 720 -3 0
-578 -573 -1277 -1272z"/>
<path d="M0 4525 l0 -540 408 -410 c224 -225 1117 -1122 1985 -1992 l1576
-1583 542 0 541 0 -1343 1347 c-739 741 -1876 1881 -2526 2533 l-1183 1185 0
-540z"/>
<path d="M13174 2193 l-2181 -2188 536 -3 536 -2 305 307 c168 170 910 915
1648 1656 l1342 1348 0 535 c0 294 -1 534 -3 534 -1 0 -984 -984 -2183 -2187z"/>
<path d="M6430 2958 c-542 -544 -986 -992 -988 -996 -1 -4 117 -129 263 -277
l266 -270 723 727 722 727 172 -172 172 -172 270 270 270 270 -442 441 -443
440 -985 -988z"/>
<path d="M0 3388 l0 -535 1423 -1427 1422 -1427 531 3 531 3 -1954 1960 -1953
1959 0 -536z"/>
<path d="M15285 3186 c-33 -35 -759 -765 -1614 -1622 l-1554 -1559 539 -3 539
-3 1083 1088 1082 1088 0 537 c0 296 -3 538 -7 538 -5 0 -35 -29 -68 -64z"/>
<path d="M6705 2102 l-709 -713 160 -160 159 -159 707 712 706 713 -157 160
-158 160 -708 -713z"/>
<path d="M0 2260 l1 -535 857 -863 857 -863 538 3 537 3 -1395 1395 -1395
1395 0 -535z"/>
<path d="M14305 1063 c-572 -574 -1041 -1049 -1043 -1054 -2 -5 210 -9 540 -9
l544 0 140 143 c77 78 305 310 507 515 l367 374 0 539 c0 296 -3 539 -7 538
-5 -1 -476 -471 -1048 -1046z"/>
<path d="M0 1127 l0 -532 298 -298 297 -297 532 2 532 3 -826 828 c-454 455
-828 827 -829 827 -2 0 -4 -240 -4 -533z"/>
<path d="M14878 489 l-477 -484 476 -3 c262 -1 478 -1 480 1 2 2 2 221 1 487
l-3 483 -477 -484z"/>
<path d="M0 265 l0 -265 267 0 267 0 -230 233 c-127 127 -244 247 -259 265
-16 17 -32 32 -37 32 -4 0 -8 -119 -8 -265z"/>
</g>
</svg>
